<svg width="24" height="24" viewBox="0 0 24 24" fill="none" xmlns="http://www.w3.org/2000/svg">
<g id="EnvelopeOpen">
<path id="Vector" d="M21.6244 8.06251L12.6244 2.06251C12.4395 1.93916 12.2222 1.87334 12 1.87334C11.7778 1.87334 11.5605 1.93916 11.3756 2.06251L2.37563 8.06251C2.22138 8.16541 2.09497 8.30485 2.00763 8.46841C1.92029 8.63197 1.87473 8.81459 1.875 9.00001V18.75C1.875 19.2473 2.07255 19.7242 2.42418 20.0758C2.77581 20.4275 3.25272 20.625 3.75 20.625H20.25C20.7473 20.625 21.2242 20.4275 21.5758 20.0758C21.9275 19.7242 22.125 19.2473 22.125 18.75V9.00001C22.1253 8.81459 22.0797 8.63197 21.9924 8.46841C21.905 8.30485 21.7786 8.16541 21.6244 8.06251ZM8.41969 14.25L4.125 17.2791V11.1853L8.41969 14.25ZM10.7213 15.375H13.2788L17.5313 18.375H6.47344L10.7213 15.375ZM15.5803 14.25L19.875 11.1834V17.2772L15.5803 14.25ZM12 4.35188L19.0181 9.03094L13.2759 13.125H10.7241L4.98188 9.03094L12 4.35188Z" fill="#81E3AA"/>
</g>
</svg>
